<?xml version="1.0" encoding="utf-8"?>
<svg preserveAspectRatio="xMidYMid slice" viewBox="0 0 500 430" xmlns="http://www.w3.org/2000/svg">
  <path d="M13 369h7v56l-1 1-6-1-1-1v-54l1-1zm78 56h-2l-22-39q-1-1-1 0v38q0 1-1 1h-6q-1 0-1-1v-54q0-1 1-1h8l23 39q1 1 1 0v-38q0-1 1-1h6q1 0 1 1v54l-1 1h-7zm86-9q-1 1-1 2l-7 7h-26l-6-7q-1-1-1-2v-38q0-1 1-2l6-7h26l7 7v9q0 1-1 1h-6l-1-5v-2l-2-2h-20l-1 1q-1 1-1 2v33q0 1 1 2l2 2h19l2-2v-10q0-1-1-1h-8v-8l1-1h16q1 1 1 2v19zm70 9q-1 0-1-1v-17q0-1-1-2l-1-1q-1-1-2-1h-19l-1 1v20l-1 1v1l-7-1v-56h33l7 7v20l-3 3q-1 0 0 1l2 3q1 0 1 2v20l-1 1-6-1zm-1-45q0-1-1-1l-1-2h-22v17q0 1 1 1h19q1 0 2-1l1-1q1-1 1-2v-11zm47 45h-1l-1-1v-54q0-1 2-1h39v7l-31 1q-1 0-1 1v14q0 1 1 1h24v8h-24q-1 0-1 1v14q0 1 1 1l31 1v7l-1 1-38-1zm117-9q0 1-1 2l-6 7h-26l-7-7q-1-1-1-2v-6q0-1 1-1h6q1 0 1 1v3q0 2 1 2l1 2h21l1-1q1-1 1-2v-9q0-1-1-2l-1-1q-1-1-2-1h-19q-1 0-2-1l-7-6q-1-1-1-2v-14q0-1 1-2l7-7h26l6 7q1 1 1 2v6l-1 1-7-1v-3q0-2-1-2l-1-2h-21l-1 1q0 1-1 2v9q1 1 1 2l1 1q1 1 2 1h20q1 0 2 1l6 6q1 1 1 2v14zm78 0q0 1-1 2l-6 7h-27l-6-7q-1-1-1-2v-7h8v4q0 2 1 2l1 2h21l1-1q1-1 1-2v-9q0-1-1-2l-1-1q-1-1-2-1h-20q-1 0-2-1l-6-6q-1-1-1-2v-14q0-1 1-2l6-7h26l7 7q1 1 1 2v6q0 1-1 1h-6q-1 0-1-1v-3q0-2-1-2l-1-2h-21l-1 1q-1 1-1 2v9q0 1 1 2l1 1q1 1 2 1h20q1 0 1 1l7 6q1 1 1 2v14zm-363 54q0-2-2-4l-2-2-3-1H93v32h8v-10h20q2-1 3-4t1-7v-4zm-8 5v3h-16v-8h15l1 1v4zm81 7v-1l1-1q1-1 2-3v-4q1-4-1.5-6.5T195 464l-5-1h-21v32h8v-10h12q1 0 3 1l1 1v8h8v-7q0-2-1-3.5t-2-2.5zm-5-8q0 3-.5 3.5t-3.5.5h-12v-8h13q2 0 2.5.5t.5 3.5zm53-11h8v32h-8v-32zm92 3q0-3-3-3h-6q-2 0-3 2l-7 20-7-20q-1-2-3-2h-5q-4 0-4 3l-2 29h8l1-21 8 19q1 2 4 2h1q3 0 4-2l7-19 2 21h8l-3-29zm54 23v-7h18v-6h-18v-6h21v-7h-29v33h29v-7h-21zM382 79L257 7q-7-4-14 0L118 79q-7 4-7 12v144q0 8 7 13l125 71q7 4 14 0l125-71q7-5 7-13V91q0-8-7-12zM251 308h-1l-118-69 51-29-7-12-51 30V90l118-68v60h14V22l118 68 1 1v137l-52-30-7 12 52 29-118 69zm-99-201l97 169h2l97-169v-1H152v1zm91 130l-60-105 55 32q6 3 6 9l-1 64zm2-85l-55-32v-1h120l1 1-56 32q-5 3-11 0h1zm12 85v-64q0-6 5-9l55-32 1 1-61 104z" style="transform-origin: 250px 35px; fill: rgb(255, 255, 255);"/>
</svg>