<?xml version="1.0" encoding="utf-8"?>
<svg viewBox="0 0 500 500" xmlns="http://www.w3.org/2000/svg">
  <path d="M198 127h104q30 1 50 21t20 50v104q0 30-20 50t-50 20H198q-30 0-50-20t-20-50V198q0-30 20-50t50-21zm-2 25q-19 0-31.5 12.5T152 196v108q0 19 12.5 31.5T196 348h108q19 0 31.5-12.5T348 304V196q0-19-12.5-31.5T304 152H196zm54 36q26 1 43.5 18.5T311 250q0 26-17.5 43.5T250 311q-26 0-43.5-17.5T189 250q0-26 17.5-43.5T250 188zm0 25q-16 1-26 11t-10 26q0 16 10 26t26 10q16 0 26-10t10-26q0-16-10-26t-26-11zm64-43q7 1 11 5t4 10.5q0 6.5-4 11t-10.5 4.5q-6.5 0-11-4.5t-4.5-11q0-6.5 4.5-10.5t10.5-5zm-64 320q-73 0-133.5-40.5T28 342Q0 275 14.5 203.5T80 80q46-46 108-62t124 0q62 16 108 62t62 108q16 62 0 124t-62 108q-34 34-78 52t-92 18zm0-464q-61 0-112.5 30T56 137.5Q26 189 26 250t30 112.5Q86 414 137.5 444T250 474q61 0 112.5-30t81.5-81.5Q474 311 474 250t-30-112.5Q414 86 362.5 56T250 26z" style="fill: rgb(255, 255, 255);"/>
</svg>