<?xml version="1.0" encoding="utf-8"?>
<svg viewBox="0 0 500 500" xmlns="http://www.w3.org/2000/svg">
  <ellipse style="fill: none; stroke-width: 16px; stroke: rgb(255, 255, 255);" cx="250" cy="250" rx="232.275" ry="232.275"/>
  <path clip-rule="evenodd" d="M 250.516 111.964 L 249.532 111.964 C 215.248 112.245 182.292 116.262 163.035 125.079 C 162.174 125.447 120.624 143.678 120.624 206.158 C 120.624 218.915 120.383 234.172 120.779 250.349 C 121.469 278.712 124.23 306.844 133.221 329.646 C 143.004 354.503 159.913 373.36 188.503 380.926 C 212.849 387.374 233.763 388.696 250.602 387.771 L 250.619 387.771 C 282.385 386.009 300.157 376.219 300.157 376.219 C 303.663 374.333 305.781 370.606 305.61 366.629 L 304.643 345.616 C 304.5 342.402 302.866 339.437 300.225 337.599 C 297.591 335.759 294.249 335.244 291.185 336.212 C 291.185 336.212 272.135 342.202 250.724 341.471 C 242.32 341.182 233.745 340.854 226.255 338.807 C 219.51 336.962 213.936 333.374 211.141 326.13 C 220.787 327.77 234.348 329.616 249.567 330.313 C 267.667 331.144 284.646 329.292 301.9 327.234 C 323.243 324.684 342.897 315.694 356.078 304.646 C 366.086 296.252 372.419 286.513 374.195 277.382 L 374.195 277.38 C 379.769 248.699 379.457 207.625 379.441 206.087 C 379.425 143.477 337.634 125.334 337.029 125.076 C 317.808 116.267 284.835 112.245 250.516 111.964 Z M 353.87 273.43 L 354.025 272.618 C 359.374 245.101 358.736 206.273 358.736 206.273 L 358.736 206.158 C 358.736 158.479 328.557 143.973 328.557 143.973 C 328.54 143.958 328.507 143.945 328.472 143.931 C 311.131 135.967 281.315 132.925 250.378 132.669 L 249.67 132.669 C 218.733 132.925 188.936 135.967 171.594 143.931 L 171.491 143.973 C 171.491 143.973 141.33 158.479 141.33 206.158 C 141.33 218.768 141.071 233.845 141.485 249.835 L 141.485 249.842 C 142.107 275.655 144.315 301.305 152.475 322.055 C 159.843 340.753 172.301 355.22 193.8 360.91 C 215.628 366.689 234.366 367.926 249.463 367.097 C 266.045 366.177 278.036 362.763 284.593 360.383 L 284.524 359.108 C 275.708 360.864 263.25 362.615 250.015 362.163 C 221.909 361.199 193.61 356.938 189.038 322.451 C 188.628 319.362 188.425 316.249 188.434 313.133 C 188.436 309.953 189.899 306.953 192.403 304.992 C 194.903 303.028 198.165 302.322 201.255 303.078 C 201.255 303.078 222.978 308.368 250.516 309.631 C 267.442 310.407 283.317 308.599 299.449 306.676 C 316.497 304.639 332.249 297.602 342.775 288.779 C 348.573 283.923 352.835 278.712 353.87 273.43 Z M 260.35 210.894 C 261.524 206.403 267.235 188.796 284.974 188.796 C 303.401 188.796 303.159 209.737 303.159 209.737 L 303.159 268.79 C 303.159 274.502 307.801 279.141 313.511 279.141 C 319.223 279.141 323.865 274.502 323.865 268.79 L 323.865 209.423 C 323.865 209.423 322.691 168.091 284.974 168.091 C 267.718 168.091 256.625 177.221 249.774 186.687 C 242.751 177.589 231.45 168.927 213.919 168.927 C 201.979 168.927 194.025 172.617 188.589 177.308 C 177.081 187.225 176.754 202.889 176.839 206.553 L 176.874 207.337 C 176.874 207.337 176.856 207.06 176.839 206.553 L 176.839 206.463 L 176.839 269.17 C 176.839 274.882 181.481 279.521 187.192 279.521 C 192.903 279.521 197.545 274.882 197.545 269.17 L 197.545 206.463 C 197.545 206.171 197.528 205.88 197.51 205.589 C 197.51 205.589 196.647 197.691 202.099 192.995 C 204.602 190.836 208.415 189.633 213.919 189.633 C 232.295 189.633 238.386 206.618 239.646 211.004 L 239.646 245.915 C 239.646 251.629 244.287 256.268 249.998 256.268 C 255.709 256.268 260.35 251.629 260.35 245.915 L 260.35 210.894 Z" fill-rule="evenodd" stroke-linejoin="round" stroke-miterlimit="2" style="fill: rgb(255, 255, 255);"/>
</svg>