<?xml version="1.0" encoding="utf-8"?>
<svg viewBox="0 0 500 500" xmlns="http://www.w3.org/2000/svg">
  <path d="M250 490q-73 0-133.5-40.5T28 342Q0 275 14.5 203.5T80 80q46-46 108-62t124 0q62 16 108 62t62 108q16 62 0 124t-62 108q-34 34-78 52t-92 18zm0-464q-61 0-112.5 30T56 137.5Q26 189 26 250t30 112.5Q86 414 137.5 444T250 474q61 0 112.5-30t81.5-81.5Q474 311 474 250t-30-112.5Q414 86 362.5 56T250 26zm-90 354l223-129q1 0 1-1t-1-1L160 120h-1.5q-.5 0-.5 1v258q0 1 .5 1h1.5zm171-121q1 0 1 .5t-1 .5l-137 79h-1l42-73q4-7 13-7h83zm-112-2l-42 73h-1V170h1l42 73q5 7 0 14zm112-17q1 0 1 .5t-1 .5h-83q-9 0-13-7l-42-73 1-1 137 80z" style="fill: rgb(255, 255, 255);"/>
</svg>