<?xml version="1.0" encoding="utf-8"?>
<svg viewBox="0 0 500 500" xmlns="http://www.w3.org/2000/svg">
  <path d="M250 490q-73 0-133.5-40.5T28 342Q0 275 14.5 203.5T80 80q46-46 108-62t124 0q62 16 108 62t62 108q16 62 0 124t-62 108q-34 34-78 52t-92 18zm0-464q-61 0-112.5 30T56 137.5Q26 189 26 250t30 112.5Q86 414 137.5 444T250 474q61 0 112.5-30t81.5-81.5Q474 311 474 250t-30-112.5Q414 86 362.5 56T250 26zm57 351q-6 0-12-3l-95-72-33-16-57-20q-14-5-16-17-1-7 4-12.5t12-7.5l229-90q15-6 24 0 7 4 7 14l-41 209q-4 9-13 13-5 2-9 2zm-4-19q4 1 6 .5t3-2.5l40-202-6 2-230 90-3 2 3 1 58 20 36 18 93 71zm-62-36l-37 34h-6l7-64 109-98q4-4 3-5 0-3-4-1l-4 1-138 88 20 68q4 11 7 11l43-34zm-40 43h-5q-8-1-13-17l-21-68q-2-7 4-10l138-88q10-6 17-2 4 2 4 7l1 2q0 6-6 12l-107 96-4 42 26-24q3-2 6.5-2t6 3q2.5 3 2 6.5T247 328l-37 33q-3 4-9 4zm-20-84q1 2 2 7l10 31 4-30q0-2 2-3l59-54-77 49zm60 50q-3 0-6-2l-36-29q-4-3-3.5-8t5.5-7q5-2 9 1l36 29q5 3 3 9.5t-8 6.5z" style="fill: rgb(255, 255, 255);"/>
</svg>